<mxfile host="65bd71144e">
    <diagram id="EVlBF6r_V6FMYgoxQzoO" name="Page-1">
        <mxGraphModel dx="965" dy="540" grid="1" gridSize="10" guides="1" tooltips="1" connect="1" arrows="1" fold="1" page="1" pageScale="1" pageWidth="827" pageHeight="1169" math="0" shadow="0">
            <root>
                <mxCell id="0"/>
                <mxCell id="1" parent="0"/>
                <mxCell id="5" value="" style="rounded=1;whiteSpace=wrap;html=1;fillColor=#cce5ff;strokeColor=#36393d;" parent="1" vertex="1">
                    <mxGeometry x="20" y="80" width="150" height="80" as="geometry"/>
                </mxCell>
                <mxCell id="47" style="edgeStyle=none;html=1;fontColor=#FFFFFF;entryX=0.379;entryY=-0.009;entryDx=0;entryDy=0;entryPerimeter=0;" parent="1" source="6" target="16" edge="1">
                    <mxGeometry relative="1" as="geometry">
                        <mxPoint x="90" y="260" as="targetPoint"/>
                    </mxGeometry>
                </mxCell>
                <mxCell id="6" value="GET/weeks/week[n]" style="text;html=1;resizable=0;autosize=1;align=center;verticalAlign=middle;points=[];rounded=0;fillColor=none;fontColor=#000000;" parent="1" vertex="1">
                    <mxGeometry x="30" y="130" width="120" height="20" as="geometry"/>
                </mxCell>
                <mxCell id="42" style="edgeStyle=none;html=1;exitX=0.75;exitY=1;exitDx=0;exitDy=0;entryX=0;entryY=0.5;entryDx=0;entryDy=0;fontColor=#000000;" parent="1" source="7" target="27" edge="1">
                    <mxGeometry relative="1" as="geometry">
                        <Array as="points">
                            <mxPoint x="452" y="395"/>
                        </Array>
                    </mxGeometry>
                </mxCell>
                <mxCell id="7" value="" style="rounded=1;whiteSpace=wrap;html=1;fillColor=#cce5ff;strokeColor=#36393d;" parent="1" vertex="1">
                    <mxGeometry x="189" y="80" width="210" height="80" as="geometry"/>
                </mxCell>
                <mxCell id="38" style="edgeStyle=none;html=1;entryX=0.44;entryY=0.004;entryDx=0;entryDy=0;entryPerimeter=0;fontColor=#000000;" parent="1" source="8" target="23" edge="1">
                    <mxGeometry relative="1" as="geometry">
                        <Array as="points">
                            <mxPoint x="370" y="270"/>
                            <mxPoint x="370" y="390"/>
                        </Array>
                    </mxGeometry>
                </mxCell>
                <mxCell id="8" value="POST/weeks/week[n]/day[n]/taskID" style="text;html=1;resizable=0;autosize=1;align=center;verticalAlign=middle;points=[];rounded=0;fillColor=none;fontColor=#000000;" parent="1" vertex="1">
                    <mxGeometry x="194" y="130" width="200" height="20" as="geometry"/>
                </mxCell>
                <mxCell id="41" style="edgeStyle=none;html=1;exitX=0.25;exitY=1;exitDx=0;exitDy=0;entryX=1;entryY=0.25;entryDx=0;entryDy=0;fontColor=#000000;" parent="1" source="9" target="33" edge="1">
                    <mxGeometry relative="1" as="geometry">
                        <Array as="points">
                            <mxPoint x="659" y="218"/>
                        </Array>
                    </mxGeometry>
                </mxCell>
                <mxCell id="207" value="" style="edgeStyle=none;html=1;" edge="1" parent="1" source="9" target="197">
                    <mxGeometry relative="1" as="geometry"/>
                </mxCell>
                <mxCell id="9" value="" style="rounded=1;whiteSpace=wrap;html=1;fillColor=#cce5ff;strokeColor=#36393d;" parent="1" vertex="1">
                    <mxGeometry x="620" y="80" width="194" height="80" as="geometry"/>
                </mxCell>
                <mxCell id="40" style="edgeStyle=none;html=1;fontColor=#000000;entryX=0.38;entryY=-0.027;entryDx=0;entryDy=0;entryPerimeter=0;" parent="1" source="10" target="30" edge="1">
                    <mxGeometry relative="1" as="geometry">
                        <mxPoint x="704" y="260" as="targetPoint"/>
                    </mxGeometry>
                </mxCell>
                <mxCell id="10" value="/weeks/week[n]/day[n]/task[id]" style="text;html=1;resizable=0;autosize=1;align=center;verticalAlign=middle;points=[];rounded=0;fillColor=none;fontColor=#000000;" parent="1" vertex="1">
                    <mxGeometry x="632" y="130" width="170" height="20" as="geometry"/>
                </mxCell>
                <mxCell id="11" value="List all Days for the week" style="text;html=1;resizable=0;autosize=1;align=center;verticalAlign=middle;points=[];rounded=0;fillColor=none;fontColor=#000000;" parent="1" vertex="1">
                    <mxGeometry x="20" y="90" width="150" height="20" as="geometry"/>
                </mxCell>
                <mxCell id="13" value="Create Comment for task" style="text;html=1;resizable=0;autosize=1;align=center;verticalAlign=middle;points=[];rounded=0;fillColor=none;fontColor=#000000;" parent="1" vertex="1">
                    <mxGeometry x="218" y="90" width="150" height="20" as="geometry"/>
                </mxCell>
                <mxCell id="14" value="Delete Comment&amp;nbsp;" style="text;html=1;resizable=0;autosize=1;align=center;verticalAlign=middle;points=[];rounded=0;fillColor=none;fontColor=#000000;" parent="1" vertex="1">
                    <mxGeometry x="669" y="90" width="110" height="20" as="geometry"/>
                </mxCell>
                <mxCell id="206" style="edgeStyle=none;html=1;exitX=0.75;exitY=0;exitDx=0;exitDy=0;entryX=0.205;entryY=1;entryDx=0;entryDy=0;entryPerimeter=0;fontSize=19;fontColor=#FFFFFF;" parent="1" source="16" target="195" edge="1">
                    <mxGeometry relative="1" as="geometry">
                        <Array as="points">
                            <mxPoint x="149" y="230"/>
                            <mxPoint x="440" y="220"/>
                        </Array>
                    </mxGeometry>
                </mxCell>
                <mxCell id="16" value="" style="rounded=0;whiteSpace=wrap;html=1;strokeColor=#56517e;fillColor=#d0cee2;" parent="1" vertex="1">
                    <mxGeometry x="29" y="265" width="160" height="190" as="geometry"/>
                </mxCell>
                <mxCell id="17" value="&lt;b&gt;Day&lt;/b&gt;" style="text;html=1;resizable=0;autosize=1;align=center;verticalAlign=middle;points=[];rounded=0;fillColor=none;fontColor=#000000;" parent="1" vertex="1">
                    <mxGeometry x="89" y="270" width="40" height="20" as="geometry"/>
                </mxCell>
                <mxCell id="19" value="&lt;div&gt;&lt;span&gt;[&lt;/span&gt;&lt;/div&gt;&lt;div&gt;&lt;span&gt;&amp;nbsp; &amp;nbsp; {&lt;/span&gt;&lt;/div&gt;&lt;div&gt;&lt;span style=&quot;white-space: pre&quot;&gt;&#9;&lt;/span&gt;&lt;b&gt;day&lt;/b&gt;: number,&lt;/div&gt;&lt;div&gt;&lt;span style=&quot;white-space: pre&quot;&gt;&#9;&lt;/span&gt;&lt;b&gt;content&lt;/b&gt;: string,&lt;/div&gt;&lt;div&gt;&lt;span style=&quot;white-space: pre&quot;&gt;&#9;&lt;/span&gt;&lt;b&gt;rating&lt;/b&gt;: number,&lt;/div&gt;&lt;div&gt;&lt;span style=&quot;white-space: pre&quot;&gt;&#9;&lt;/span&gt;&lt;b&gt;weekend&lt;/b&gt;: boolean,&lt;br&gt;&lt;/div&gt;&lt;div&gt;&lt;span style=&quot;white-space: pre&quot;&gt;&#9;&lt;/span&gt;&lt;b&gt;completed&lt;/b&gt;: boolean,&lt;br&gt;&lt;/div&gt;&lt;div&gt;&lt;span style=&quot;white-space: pre&quot;&gt;&#9;&lt;/span&gt;&lt;b&gt;comment&lt;/b&gt;: string&lt;br&gt;&lt;/div&gt;&lt;div&gt;&amp;nbsp; &amp;nbsp; }, ...&lt;/div&gt;&lt;div&gt;]&lt;/div&gt;&lt;div&gt;&lt;span&gt;&amp;nbsp;&lt;/span&gt;&lt;/div&gt;" style="text;html=1;resizable=0;autosize=1;align=left;verticalAlign=middle;points=[];rounded=0;fillColor=none;fontColor=#000000;" parent="1" vertex="1">
                    <mxGeometry x="34" y="290" width="150" height="160" as="geometry"/>
                </mxCell>
                <mxCell id="37" style="edgeStyle=none;html=1;entryX=0.289;entryY=1.038;entryDx=0;entryDy=0;entryPerimeter=0;fontColor=#000000;exitX=0.267;exitY=0;exitDx=0;exitDy=0;exitPerimeter=0;" parent="1" source="20" target="7" edge="1">
                    <mxGeometry relative="1" as="geometry"/>
                </mxCell>
                <mxCell id="20" value="" style="rounded=0;whiteSpace=wrap;html=1;strokeColor=#56517e;fillColor=#d0cee2;" parent="1" vertex="1">
                    <mxGeometry x="210" y="275" width="150" height="110" as="geometry"/>
                </mxCell>
                <mxCell id="21" value="&lt;b&gt;Comment&lt;/b&gt;" style="text;html=1;resizable=0;autosize=1;align=center;verticalAlign=middle;points=[];rounded=0;fillColor=none;fontColor=#000000;" parent="1" vertex="1">
                    <mxGeometry x="250" y="280" width="70" height="20" as="geometry"/>
                </mxCell>
                <mxCell id="22" value="&lt;div&gt;&lt;span&gt;{&lt;/span&gt;&lt;br&gt;&lt;/div&gt;&lt;div&gt;&lt;span style=&quot;white-space: pre&quot;&gt;&#9;&lt;/span&gt;&lt;b&gt;content&lt;/b&gt;: string,&lt;/div&gt;&lt;div&gt;}&lt;/div&gt;&lt;div&gt;&lt;span&gt;&amp;nbsp;&lt;/span&gt;&lt;/div&gt;" style="text;html=1;resizable=0;autosize=1;align=left;verticalAlign=middle;points=[];rounded=0;fillColor=none;fontColor=#000000;" parent="1" vertex="1">
                    <mxGeometry x="225" y="315" width="120" height="60" as="geometry"/>
                </mxCell>
                <mxCell id="23" value="" style="rounded=0;whiteSpace=wrap;html=1;strokeColor=#36393d;fillColor=#cdeb8b;" parent="1" vertex="1">
                    <mxGeometry x="244" y="450" width="150" height="120" as="geometry"/>
                </mxCell>
                <mxCell id="24" value="&lt;b&gt;Created&lt;/b&gt;" style="text;html=1;resizable=0;autosize=1;align=center;verticalAlign=middle;points=[];rounded=0;fillColor=none;fontColor=#000000;" parent="1" vertex="1">
                    <mxGeometry x="289" y="455" width="60" height="20" as="geometry"/>
                </mxCell>
                <mxCell id="25" value="&lt;div&gt;&lt;span&gt;{&lt;/span&gt;&lt;br&gt;&lt;/div&gt;&lt;div&gt;&lt;span style=&quot;white-space: pre&quot;&gt;&#9;&lt;/span&gt;&lt;b&gt;code&lt;/b&gt;: int,&lt;br&gt;&lt;/div&gt;&lt;div&gt;&lt;span style=&quot;white-space: pre&quot;&gt;&#9;&lt;/span&gt;&lt;b&gt;message&lt;/b&gt;: string,&lt;/div&gt;&lt;div&gt;}&lt;/div&gt;&lt;div&gt;&lt;span&gt;&amp;nbsp;&lt;/span&gt;&lt;/div&gt;" style="text;html=1;resizable=0;autosize=1;align=left;verticalAlign=middle;points=[];rounded=0;fillColor=none;fontColor=#000000;" parent="1" vertex="1">
                    <mxGeometry x="254" y="485" width="130" height="80" as="geometry"/>
                </mxCell>
                <mxCell id="27" value="" style="rounded=0;whiteSpace=wrap;html=1;strokeColor=#ae4132;fillColor=#fad9d5;" parent="1" vertex="1">
                    <mxGeometry x="489" y="340" width="150" height="110" as="geometry"/>
                </mxCell>
                <mxCell id="28" value="&lt;b&gt;Not Found&lt;/b&gt;" style="text;html=1;resizable=0;autosize=1;align=center;verticalAlign=middle;points=[];rounded=0;fillColor=none;fontColor=#000000;" parent="1" vertex="1">
                    <mxGeometry x="524" y="345" width="80" height="20" as="geometry"/>
                </mxCell>
                <mxCell id="29" value="&lt;div&gt;&lt;span&gt;{&lt;/span&gt;&lt;br&gt;&lt;/div&gt;&lt;div&gt;&lt;span style=&quot;white-space: pre&quot;&gt;&#9;&lt;/span&gt;&lt;b&gt;code&lt;/b&gt;: int,&lt;br&gt;&lt;/div&gt;&lt;div&gt;&lt;span style=&quot;white-space: pre&quot;&gt;&#9;&lt;/span&gt;&lt;b&gt;message&lt;/b&gt;: string,&lt;/div&gt;&lt;div&gt;}&lt;/div&gt;&lt;div&gt;&lt;span&gt;&amp;nbsp;&lt;/span&gt;&lt;/div&gt;" style="text;html=1;resizable=0;autosize=1;align=left;verticalAlign=middle;points=[];rounded=0;fillColor=none;fontColor=#000000;" parent="1" vertex="1">
                    <mxGeometry x="499" y="375" width="130" height="80" as="geometry"/>
                </mxCell>
                <mxCell id="30" value="" style="rounded=0;whiteSpace=wrap;html=1;strokeColor=#36393d;fillColor=#cdeb8b;" parent="1" vertex="1">
                    <mxGeometry x="660" y="265" width="150" height="110" as="geometry"/>
                </mxCell>
                <mxCell id="31" value="&lt;b&gt;OK&lt;/b&gt;" style="text;html=1;resizable=0;autosize=1;align=center;verticalAlign=middle;points=[];rounded=0;fillColor=none;fontColor=#000000;" parent="1" vertex="1">
                    <mxGeometry x="720" y="270" width="30" height="20" as="geometry"/>
                </mxCell>
                <mxCell id="32" value="&lt;div&gt;&lt;span&gt;{&lt;/span&gt;&lt;br&gt;&lt;/div&gt;&lt;div&gt;&lt;span style=&quot;white-space: pre&quot;&gt;&#9;&lt;/span&gt;&lt;b&gt;code&lt;/b&gt;: int,&lt;br&gt;&lt;/div&gt;&lt;div&gt;&lt;span style=&quot;white-space: pre&quot;&gt;&#9;&lt;/span&gt;&lt;b&gt;message&lt;/b&gt;: string,&lt;/div&gt;&lt;div&gt;}&lt;/div&gt;&lt;div&gt;&lt;span&gt;&amp;nbsp;&lt;/span&gt;&lt;/div&gt;" style="text;html=1;resizable=0;autosize=1;align=left;verticalAlign=middle;points=[];rounded=0;fillColor=none;fontColor=#000000;" parent="1" vertex="1">
                    <mxGeometry x="670" y="290" width="130" height="80" as="geometry"/>
                </mxCell>
                <mxCell id="43" style="edgeStyle=none;html=1;fontColor=#000000;" parent="1" source="33" edge="1">
                    <mxGeometry relative="1" as="geometry">
                        <mxPoint x="569" y="340" as="targetPoint"/>
                    </mxGeometry>
                </mxCell>
                <mxCell id="33" value="" style="rounded=0;whiteSpace=wrap;html=1;strokeColor=#ae4132;fillColor=#fad9d5;" parent="1" vertex="1">
                    <mxGeometry x="494" y="190" width="150" height="110" as="geometry"/>
                </mxCell>
                <mxCell id="34" value="&lt;b&gt;Error&lt;/b&gt;" style="text;html=1;resizable=0;autosize=1;align=center;verticalAlign=middle;points=[];rounded=0;fillColor=none;fontColor=#000000;" parent="1" vertex="1">
                    <mxGeometry x="549" y="195" width="40" height="20" as="geometry"/>
                </mxCell>
                <mxCell id="35" value="&lt;div&gt;&lt;span&gt;{&lt;/span&gt;&lt;br&gt;&lt;/div&gt;&lt;div&gt;&lt;span style=&quot;white-space: pre&quot;&gt;&#9;&lt;/span&gt;&lt;b&gt;reason&lt;/b&gt;: string,&lt;br&gt;&lt;/div&gt;&lt;div&gt;&lt;span style=&quot;white-space: pre&quot;&gt;&#9;&lt;/span&gt;&lt;b&gt;message&lt;/b&gt;: string,&lt;/div&gt;&lt;div&gt;}&lt;/div&gt;&lt;div&gt;&lt;span&gt;&amp;nbsp;&lt;/span&gt;&lt;/div&gt;" style="text;html=1;resizable=0;autosize=1;align=left;verticalAlign=middle;points=[];rounded=0;fillColor=none;fontColor=#000000;" parent="1" vertex="1">
                    <mxGeometry x="509" y="225" width="130" height="80" as="geometry"/>
                </mxCell>
                <mxCell id="44" value="&lt;font color=&quot;#ffffff&quot;&gt;201&lt;/font&gt;" style="text;html=1;resizable=0;autosize=1;align=center;verticalAlign=middle;points=[];rounded=0;fillColor=none;fontColor=#000000;" parent="1" vertex="1">
                    <mxGeometry x="328" y="430" width="40" height="20" as="geometry"/>
                </mxCell>
                <mxCell id="45" value="&lt;font color=&quot;#ffffff&quot;&gt;404&lt;/font&gt;" style="text;html=1;resizable=0;autosize=1;align=center;verticalAlign=middle;points=[];rounded=0;fillColor=none;fontColor=#000000;" parent="1" vertex="1">
                    <mxGeometry x="434" y="400" width="40" height="20" as="geometry"/>
                </mxCell>
                <mxCell id="46" value="&lt;font color=&quot;#ffffff&quot;&gt;200&lt;/font&gt;" style="text;html=1;resizable=0;autosize=1;align=center;verticalAlign=middle;points=[];rounded=0;fillColor=none;fontColor=#000000;" parent="1" vertex="1">
                    <mxGeometry x="730" y="235" width="40" height="20" as="geometry"/>
                </mxCell>
                <mxCell id="192" value="&lt;b&gt;&lt;font color=&quot;#ffffff&quot; style=&quot;font-size: 19px&quot;&gt;Bootcamper API endpoints&lt;/font&gt;&lt;/b&gt;" style="text;html=1;resizable=0;autosize=1;align=center;verticalAlign=middle;points=[];rounded=0;fillColor=none;fontColor=#000000;" parent="1" vertex="1">
                    <mxGeometry x="274" y="20" width="260" height="20" as="geometry"/>
                </mxCell>
                <mxCell id="194" value="&lt;font color=&quot;#ffffff&quot;&gt;200&lt;/font&gt;" style="text;html=1;resizable=0;autosize=1;align=center;verticalAlign=middle;points=[];rounded=0;fillColor=none;fontColor=#000000;" parent="1" vertex="1">
                    <mxGeometry x="89" y="235" width="40" height="20" as="geometry"/>
                </mxCell>
                <mxCell id="203" style="edgeStyle=none;html=1;exitX=0.25;exitY=1;exitDx=0;exitDy=0;entryX=0.054;entryY=-0.005;entryDx=0;entryDy=0;entryPerimeter=0;fontSize=19;fontColor=#FFFFFF;" parent="1" source="195" target="198" edge="1">
                    <mxGeometry relative="1" as="geometry">
                        <Array as="points">
                            <mxPoint x="432" y="320"/>
                        </Array>
                    </mxGeometry>
                </mxCell>
                <mxCell id="195" value="" style="rounded=1;whiteSpace=wrap;html=1;fillColor=#cce5ff;strokeColor=#36393d;" parent="1" vertex="1">
                    <mxGeometry x="424" y="80" width="180" height="80" as="geometry"/>
                </mxCell>
                <mxCell id="196" value="PATCH/weeks/week[n]/day[n]" style="text;html=1;resizable=0;autosize=1;align=center;verticalAlign=middle;points=[];rounded=0;fillColor=none;fontColor=#000000;" parent="1" vertex="1">
                    <mxGeometry x="429" y="130" width="170" height="20" as="geometry"/>
                </mxCell>
                <mxCell id="197" value="Patch Day&amp;nbsp;" style="text;html=1;resizable=0;autosize=1;align=center;verticalAlign=middle;points=[];rounded=0;fillColor=none;fontColor=#000000;" parent="1" vertex="1">
                    <mxGeometry x="479" y="90" width="70" height="20" as="geometry"/>
                </mxCell>
                <mxCell id="198" value="" style="rounded=0;whiteSpace=wrap;html=1;strokeColor=#36393d;fillColor=#cdeb8b;" parent="1" vertex="1">
                    <mxGeometry x="424" y="485" width="150" height="120" as="geometry"/>
                </mxCell>
                <mxCell id="199" value="&lt;b&gt;Created&lt;/b&gt;" style="text;html=1;resizable=0;autosize=1;align=center;verticalAlign=middle;points=[];rounded=0;fillColor=none;fontColor=#000000;" parent="1" vertex="1">
                    <mxGeometry x="469" y="490" width="60" height="20" as="geometry"/>
                </mxCell>
                <mxCell id="200" value="&lt;div&gt;&lt;span&gt;{&lt;/span&gt;&lt;br&gt;&lt;/div&gt;&lt;div&gt;&lt;span style=&quot;white-space: pre&quot;&gt;&#9;&lt;/span&gt;&lt;b&gt;code&lt;/b&gt;: int,&lt;br&gt;&lt;/div&gt;&lt;div&gt;&lt;span style=&quot;white-space: pre&quot;&gt;&#9;&lt;/span&gt;&lt;b&gt;message&lt;/b&gt;: string,&lt;/div&gt;&lt;div&gt;}&lt;/div&gt;&lt;div&gt;&lt;span&gt;&amp;nbsp;&lt;/span&gt;&lt;/div&gt;" style="text;html=1;resizable=0;autosize=1;align=left;verticalAlign=middle;points=[];rounded=0;fillColor=none;fontColor=#000000;" parent="1" vertex="1">
                    <mxGeometry x="434" y="520" width="130" height="80" as="geometry"/>
                </mxCell>
                <mxCell id="204" value="&lt;font color=&quot;#ffffff&quot;&gt;201&lt;/font&gt;" style="text;html=1;resizable=0;autosize=1;align=center;verticalAlign=middle;points=[];rounded=0;fillColor=none;fontColor=#000000;" parent="1" vertex="1">
                    <mxGeometry x="434" y="455" width="40" height="20" as="geometry"/>
                </mxCell>
            </root>
        </mxGraphModel>
    </diagram>
</mxfile>